//--------------------------------------------------
int verseMelody[] =
{
  NOTE_D3, NOTE_B3, NOTE_A3, NOTE_G3,
  NOTE_D3, NOTE_D3, NOTE_D3,
  NOTE_D3, NOTE_B3, NOTE_A3, NOTE_G3,
  NOTE_E3, 0,
  NOTE_E3, NOTE_C4, NOTE_B3, NOTE_A3,
  NOTE_FS3, 0,
  NOTE_D4, NOTE_D4, NOTE_C4, NOTE_A3,
  NOTE_B3, 0,
  NOTE_D3, NOTE_B3, NOTE_A3, NOTE_G3,
  NOTE_D3, 0,
  NOTE_D3, NOTE_B3, NOTE_A3, NOTE_G3,
  NOTE_E3, NOTE_E3,
  NOTE_E3, NOTE_C4, NOTE_B3, NOTE_A3,
  NOTE_D4,  NOTE_D4, NOTE_D4,  NOTE_D4,
  NOTE_E4, NOTE_D4, NOTE_C4, NOTE_A3,
  NOTE_G3, 0
};

//--------------------------------------------------
int verseRhythm[] =
{
  4, 4, 4, 4,
  2, 8, 8,
  4, 4, 4, 4,
  2, 4,
  4, 4, 4, 4,
  2, 2,
  4, 4, 4, 4,
  2, 4,
  4, 4, 4, 4,
  2, 2,
  4, 4, 4, 4,
  2, 4,
  4, 4, 4, 4,
  4, 4, 4, 4,
  4, 4, 4, 4,
  1, 4
};
//--------------------------------------------------
int chorusMelody[]
{
  NOTE_B3, NOTE_B3,  NOTE_B3,
  NOTE_B3,  NOTE_B3,  NOTE_B3,
  NOTE_B3, NOTE_D4, NOTE_G3, NOTE_A3,
  NOTE_B3, 0,
  NOTE_C4,  NOTE_C4, NOTE_C4,  NOTE_C4,
  NOTE_C4, NOTE_B3,  NOTE_B3,  NOTE_B3,  NOTE_B3,
  NOTE_B3, NOTE_A3, NOTE_A3, NOTE_B3,
  NOTE_A3, NOTE_D4,
  NOTE_B3, NOTE_B3,  NOTE_B3,
  NOTE_B3,  NOTE_B3,  NOTE_B3,
  NOTE_B3, NOTE_D4, NOTE_G3, NOTE_A3,
  NOTE_B3, 0,
  NOTE_C4,  NOTE_C4, NOTE_C4,  NOTE_C4,
  NOTE_C4, NOTE_B3,  NOTE_B3,  NOTE_B3,  NOTE_B3,
  NOTE_D4, NOTE_D4,  NOTE_C4,  NOTE_A3,
  NOTE_G3, -1
};
//--------------------------------------------------
int chorusRhythm[] =
{
  4, 4, 2,
  4, 4, 2,
  4, 4, 3, 8,
  2, 4,
  4, 4, 3, 8,
  4, 4, 4, 8, 8,
  4, 4, 4, 4,
  2, 2, //
  4, 4, 2,
  4, 4, 2,
  4, 4, 3, 8,
  2, 4,
  4, 4, 3, 8,
  4, 4, 4, 8, 8,
  4, 4, 4, 4,
  2, 2
};
int chorusRhythm2[] =
{
  4, 4, 2,
  4, 4, 2,
  4, 4, 3, 8,
  2, 4,
  4, 4, 3, 8,
  4, 4, 4, 8, 8,
  4, 4, 4, 4,
  2, 2, //
  4, 4, 2,
  4, 4, 2,
  4, 4, 3, 8,
  2, 4,
  4, 4, 3, 8,
  4, 4, 4, 8, 8,
  4, 4, 4, 4,
  2, 2
};
